<?xml version="1.0" encoding="utf-8"?>
<!-- Generator: Adobe Illustrator 16.0.3, SVG Export Plug-In . SVG Version: 6.00 Build 0)  -->
<!DOCTYPE svg PUBLIC "-//W3C//DTD SVG 1.1//EN" "http://www.w3.org/Graphics/SVG/1.1/DTD/svg11.dtd">
<svg version="1.1" id="Layer_1" xmlns:sketch="http://www.bohemiancoding.com/sketch/ns"
	 xmlns="http://www.w3.org/2000/svg" xmlns:xlink="http://www.w3.org/1999/xlink" x="0px" y="0px" width="18px" height="18px"
	 viewBox="0 0 18 18" enable-background="new 0 0 18 18" xml:space="preserve">
<title></title>
<desc></desc>
<g id="Page-1">
	<g id="Core" transform="translate(-87.000000, -213.000000)">
		<g id="exit-to-app" transform="translate(87.000000, 213.000000)">
			<path id="Shape" fill="#FFFFFF" d="M7.1,12.6L8.5,14l5-5l-5-5L7.1,5.4L9.7,8H0v2h9.7L7.1,12.6L7.1,12.6z M16,0H2C0.9,0,0,0.9,0,2
				v4h2V2h14v14H2v-4H0v4c0,1.1,0.9,2,2,2h14c1.1,0,2-0.9,2-2V2C18,0.9,17.1,0,16,0L16,0z"/>
		</g>
	</g>
</g>
</svg>
