<?xml version="1.0" encoding="utf-8"?>
<!-- Generator: Adobe Illustrator 16.0.3, SVG Export Plug-In . SVG Version: 6.00 Build 0)  -->
<!DOCTYPE svg PUBLIC "-//W3C//DTD SVG 1.1//EN" "http://www.w3.org/Graphics/SVG/1.1/DTD/svg11.dtd">
<svg version="1.1" id="Layer_1" xmlns="http://www.w3.org/2000/svg" xmlns:xlink="http://www.w3.org/1999/xlink" x="0px" y="0px"
	 width="69px" height="69px" viewBox="0 0 69 69" enable-background="new 0 0 69 69" xml:space="preserve">
<g>
	<g>
		<path fill="#FFFFFF" d="M26.207,55.2c0.213-10.787-13.289-19.262-10.361-30.957c0,0-1.022,1.039-3.299,3.299
			c-4.395,4.396-3.215,10.785,0.614,14.617C14.961,43.958,26.207,55.2,26.207,55.2z"/>
		<path fill="#FFFFFF" d="M42.936,13.397c-0.213,10.785,13.289,19.262,10.361,30.959c0,0,1.023-1.041,3.299-3.299
			c4.395-4.398,3.217-10.787-0.613-14.619C54.182,24.64,42.936,13.397,42.936,13.397z"/>
		<g>
			<path fill="#FFFFFF" d="M26.367,13.843c0,0-5.72,3.801-7.033,8.051C15.558,34.132,29.23,41.728,29.67,55.935
				c0.075,2.439,2.14,3.893,4.602,3.893c2.092,0,4.36-1.172,4.827-3.893C41.696,40.769,24.205,29.538,26.367,13.843z"/>
		</g>
		<g>
			<path fill="#FFFFFF" d="M42.776,54.755c0,0,5.721-3.799,7.033-8.051c3.777-12.236-9.896-19.834-10.336-34.041
				c-0.074-2.441-2.139-3.893-4.601-3.893c-2.093,0-4.36,1.172-4.827,3.893C27.448,27.829,44.938,39.058,42.776,54.755z"/>
		</g>
	</g>
</g>
<rect id="_x3C_Slice_x3E_" fill="none" width="69" height="69"/>
<g>
</g>
<g>
</g>
</svg>
