<?xml version="1.0" encoding="UTF-8" standalone="no"?>
<!DOCTYPE svg PUBLIC "-//W3C//DTD SVG 1.1//EN"
 "http://www.w3.org/Graphics/SVG/1.1/DTD/svg11.dtd">
<!-- Generated by graphviz version 2.38.0 (20140413.2041)
 -->
<!-- Title: CommandFlow Pages: 1 -->
<svg width="903pt" height="886pt"
 viewBox="0.00 0.00 1083.84 1062.81" xmlns="http://www.w3.org/2000/svg" xmlns:xlink="http://www.w3.org/1999/xlink">
<g id="graph0" class="graph" transform="scale(0.833333 0.833333) rotate(0) translate(4 1058.81)">
<title>CommandFlow</title>
<polygon fill="white" stroke="none" points="-4,4 -4,-1058.81 1079.84,-1058.81 1079.84,4 -4,4"/>
<!-- RingHandler -->
<g id="node1" class="node"><title>RingHandler</title>
<text text-anchor="middle" x="87.5698" y="-13.8" font-family="Times,serif" font-size="14.00">RingHandler</text>
</g>
<!-- Start -->
<g id="node2" class="node"><title>Start</title>
<ellipse fill="none" stroke="black" cx="87.5698" cy="-1028" rx="26.6198" ry="26.6198"/>
<text text-anchor="middle" x="87.5698" y="-1023.8" font-family="Times,serif" font-size="14.00">Start</text>
</g>
<!-- HttpRequest -->
<g id="node3" class="node"><title>HttpRequest</title>
<polygon fill="none" stroke="black" points="167.357,-966 40.4337,-966 7.78313,-930 134.706,-930 167.357,-966"/>
<text text-anchor="middle" x="87.5698" y="-943.8" font-family="Times,serif" font-size="14.00">HttpRequest</text>
</g>
<!-- Start&#45;&gt;HttpRequest -->
<g id="edge1" class="edge"><title>Start&#45;&gt;HttpRequest</title>
<path fill="none" stroke="black" d="M87.5698,-1000.93C87.5698,-992.682 87.5698,-984.434 87.5698,-976.186"/>
<polygon fill="black" stroke="black" points="91.0699,-976.125 87.5698,-966.125 84.0699,-976.125 91.0699,-976.125"/>
</g>
<!-- TranslateFromHttp -->
<g id="node9" class="node"><title>TranslateFromHttp</title>
<ellipse fill="none" stroke="black" cx="289.725" cy="-948" rx="77.6716" ry="18"/>
<text text-anchor="middle" x="289.725" y="-943.8" font-family="Times,serif" font-size="14.00">TranslateFromHttp</text>
</g>
<!-- HttpRequest&#45;&gt;TranslateFromHttp -->
<g id="edge2" class="edge"><title>HttpRequest&#45;&gt;TranslateFromHttp</title>
<path fill="none" stroke="black" d="M151.077,-948C167.035,-948 184.484,-948 201.435,-948"/>
<polygon fill="black" stroke="black" points="201.908,-951.5 211.908,-948 201.908,-944.5 201.908,-951.5"/>
</g>
<!-- HttpResponse -->
<g id="node4" class="node"><title>HttpResponse</title>
<polygon fill="none" stroke="black" points="175.21,-174 35.7944,-174 -0.0698769,-138 139.345,-138 175.21,-174"/>
<text text-anchor="middle" x="87.5698" y="-151.8" font-family="Times,serif" font-size="14.00">HttpResponse</text>
</g>
<!-- End -->
<g id="node5" class="node"><title>End</title>
<ellipse fill="none" stroke="black" cx="87.5698" cy="-78" rx="24.2053" ry="24.2053"/>
<text text-anchor="middle" x="87.5698" y="-73.8" font-family="Times,serif" font-size="14.00">End</text>
</g>
<!-- HttpResponse&#45;&gt;End -->
<g id="edge24" class="edge"><title>HttpResponse&#45;&gt;End</title>
<path fill="none" stroke="black" d="M87.5698,-137.985C87.5698,-129.454 87.5698,-120.922 87.5698,-112.39"/>
<polygon fill="black" stroke="black" points="91.0699,-112.375 87.5698,-102.375 84.0699,-112.375 91.0699,-112.375"/>
</g>
<!-- RillWebHandler -->
<g id="node6" class="node"><title>RillWebHandler</title>
<text text-anchor="middle" x="289.725" y="-997.8" font-family="Times,serif" font-size="14.00">RillWebHandler</text>
</g>
<!-- PassThrough -->
<g id="node7" class="node"><title>PassThrough</title>
<ellipse fill="none" stroke="black" cx="289.725" cy="-876" rx="56.0786" ry="18"/>
<text text-anchor="middle" x="289.725" y="-871.8" font-family="Times,serif" font-size="14.00">PassThrough</text>
</g>
<!-- Command -->
<g id="node10" class="node"><title>Command</title>
<polygon fill="none" stroke="black" points="358.41,-822 249.148,-822 221.041,-786 330.303,-786 358.41,-822"/>
<text text-anchor="middle" x="289.725" y="-799.8" font-family="Times,serif" font-size="14.00">Command</text>
</g>
<!-- PassThrough&#45;&gt;Command -->
<g id="edge4" class="edge"><title>PassThrough&#45;&gt;Command</title>
<path fill="none" stroke="black" d="M289.725,-857.954C289.725,-849.407 289.725,-840.861 289.725,-832.314"/>
<polygon fill="black" stroke="black" points="293.225,-832.281 289.725,-822.281 286.225,-832.281 293.225,-832.281"/>
</g>
<!-- TranslateToHttp -->
<g id="node8" class="node"><title>TranslateToHttp</title>
<ellipse fill="none" stroke="black" cx="289.725" cy="-156" rx="67.7567" ry="18"/>
<text text-anchor="middle" x="289.725" y="-151.8" font-family="Times,serif" font-size="14.00">TranslateToHttp</text>
</g>
<!-- TranslateToHttp&#45;&gt;HttpResponse -->
<g id="edge23" class="edge"><title>TranslateToHttp&#45;&gt;HttpResponse</title>
<path fill="none" stroke="black" d="M222.083,-156C204.639,-156 185.665,-156 167.642,-156"/>
<polygon fill="black" stroke="black" points="167.452,-152.5 157.452,-156 167.452,-159.5 167.452,-152.5"/>
</g>
<!-- TranslateFromHttp&#45;&gt;PassThrough -->
<g id="edge3" class="edge"><title>TranslateFromHttp&#45;&gt;PassThrough</title>
<path fill="none" stroke="black" d="M289.725,-929.859C289.725,-921.268 289.725,-912.677 289.725,-904.085"/>
<polygon fill="black" stroke="black" points="293.225,-904 289.725,-894 286.225,-904 293.225,-904"/>
</g>
<!-- Prepare -->
<g id="node12" class="node"><title>Prepare</title>
<ellipse fill="none" stroke="black" cx="582.598" cy="-804" rx="37.2248" ry="18"/>
<text text-anchor="middle" x="582.598" y="-799.8" font-family="Times,serif" font-size="14.00">Prepare</text>
</g>
<!-- Command&#45;&gt;Prepare -->
<g id="edge5" class="edge"><title>Command&#45;&gt;Prepare</title>
<path fill="none" stroke="black" d="M344.415,-804C399.087,-804 482.994,-804 534.968,-804"/>
<polygon fill="black" stroke="black" points="535.235,-807.5 545.235,-804 535.235,-800.5 535.235,-807.5"/>
</g>
<!-- CommandHandler -->
<g id="node11" class="node"><title>CommandHandler</title>
<text text-anchor="middle" x="582.598" y="-853.8" font-family="Times,serif" font-size="14.00">CommandHandler</text>
</g>
<!-- AggregateIds -->
<g id="node13" class="node"><title>AggregateIds</title>
<polygon fill="none" stroke="black" points="667.426,-750 532.484,-750 497.77,-714 632.713,-714 667.426,-750"/>
<text text-anchor="middle" x="582.598" y="-727.8" font-family="Times,serif" font-size="14.00">AggregateIds</text>
</g>
<!-- Prepare&#45;&gt;AggregateIds -->
<g id="edge6" class="edge"><title>Prepare&#45;&gt;AggregateIds</title>
<path fill="none" stroke="black" d="M582.598,-785.954C582.598,-777.407 582.598,-768.861 582.598,-760.314"/>
<polygon fill="black" stroke="black" points="586.099,-760.281 582.598,-750.281 579.099,-760.281 586.099,-760.281"/>
</g>
<!-- RetrieveAggregates -->
<g id="node22" class="node"><title>RetrieveAggregates</title>
<ellipse fill="none" stroke="black" cx="830.245" cy="-732" rx="80.1645" ry="18"/>
<text text-anchor="middle" x="830.245" y="-727.8" font-family="Times,serif" font-size="14.00">RetrieveAggregates</text>
</g>
<!-- AggregateIds&#45;&gt;RetrieveAggregates -->
<g id="edge7" class="edge"><title>AggregateIds&#45;&gt;RetrieveAggregates</title>
<path fill="none" stroke="black" d="M650.074,-732C677.528,-732 709.778,-732 739.294,-732"/>
<polygon fill="black" stroke="black" points="739.607,-735.5 749.607,-732 739.607,-728.5 739.607,-735.5"/>
</g>
<!-- HandleCommand -->
<g id="node14" class="node"><title>HandleCommand</title>
<polygon fill="none" stroke="black" points="672.305,-593.562 582.598,-606 492.892,-593.562 492.976,-573.438 672.221,-573.438 672.305,-593.562"/>
<text text-anchor="middle" x="582.598" y="-583.8" font-family="Times,serif" font-size="14.00">HandleCommand</text>
</g>
<!-- StatusAndEvents -->
<g id="node15" class="node"><title>StatusAndEvents</title>
<polygon fill="none" stroke="black" points="686.876,-534 520.994,-534 478.321,-498 644.203,-498 686.876,-534"/>
<text text-anchor="middle" x="582.598" y="-511.8" font-family="Times,serif" font-size="14.00">StatusAndEvents</text>
</g>
<!-- HandleCommand&#45;&gt;StatusAndEvents -->
<g id="edge13" class="edge"><title>HandleCommand&#45;&gt;StatusAndEvents</title>
<path fill="none" stroke="black" d="M582.598,-573.311C582.598,-563.655 582.598,-554 582.598,-544.344"/>
<polygon fill="black" stroke="black" points="586.099,-544.281 582.598,-534.281 579.099,-544.281 586.099,-544.281"/>
</g>
<!-- CheckCommandResult -->
<g id="node16" class="node"><title>CheckCommandResult</title>
<polygon fill="none" stroke="black" points="582.598,-462 452.469,-444 582.598,-426 712.728,-444 582.598,-462"/>
<text text-anchor="middle" x="582.598" y="-439.8" font-family="Times,serif" font-size="14.00">CheckCommandResult</text>
</g>
<!-- StatusAndEvents&#45;&gt;CheckCommandResult -->
<g id="edge14" class="edge"><title>StatusAndEvents&#45;&gt;CheckCommandResult</title>
<path fill="none" stroke="black" d="M582.598,-497.954C582.598,-489.407 582.598,-480.861 582.598,-472.314"/>
<polygon fill="black" stroke="black" points="586.099,-472.281 582.598,-462.281 579.099,-472.281 586.099,-472.281"/>
</g>
<!-- CommitCommandResult -->
<g id="node17" class="node"><title>CommitCommandResult</title>
<ellipse fill="none" stroke="black" cx="582.598" cy="-372" rx="98.5916" ry="18"/>
<text text-anchor="middle" x="582.598" y="-367.8" font-family="Times,serif" font-size="14.00">CommitCommandResult</text>
</g>
<!-- CheckCommandResult&#45;&gt;CommitCommandResult -->
<g id="edge15" class="edge"><title>CheckCommandResult&#45;&gt;CommitCommandResult</title>
<path fill="none" stroke="black" d="M582.598,-425.587C582.598,-417.941 582.598,-408.892 582.598,-400.427"/>
<polygon fill="black" stroke="black" points="586.099,-400.169 582.598,-390.169 579.099,-400.169 586.099,-400.169"/>
<text text-anchor="middle" x="572.598" y="-403.8" font-family="Times,serif" font-size="14.00">Result Ok</text>
</g>
<!-- RillResult -->
<g id="node20" class="node"><title>RillResult</title>
<polygon fill="none" stroke="black" points="649.921,-174 542.826,-174 515.275,-138 622.371,-138 649.921,-174"/>
<text text-anchor="middle" x="582.598" y="-151.8" font-family="Times,serif" font-size="14.00">RillResult</text>
</g>
<!-- CheckCommandResult&#45;&gt;RillResult -->
<g id="edge16" class="edge"><title>CheckCommandResult&#45;&gt;RillResult</title>
<path fill="none" stroke="black" d="M522.231,-434.232C498.048,-427.709 471.437,-416.89 452.284,-399 443.083,-390.406 404.401,-336.878 413.311,-293 422.149,-249.482 419.831,-231.311 452.284,-201 471.962,-182.62 499.511,-171.704 524.213,-165.241"/>
<polygon fill="black" stroke="black" points="525.337,-168.57 534.233,-162.816 523.69,-161.767 525.337,-168.57"/>
<text text-anchor="middle" x="409.797" y="-295.8" font-family="Times,serif" font-size="14.00">Rejected</text>
</g>
<!-- NewEvents -->
<g id="node18" class="node"><title>NewEvents</title>
<polygon fill="none" stroke="black" points="657.28,-318 538.478,-318 507.916,-282 626.719,-282 657.28,-318"/>
<text text-anchor="middle" x="582.598" y="-295.8" font-family="Times,serif" font-size="14.00">NewEvents</text>
</g>
<!-- CommitCommandResult&#45;&gt;NewEvents -->
<g id="edge17" class="edge"><title>CommitCommandResult&#45;&gt;NewEvents</title>
<path fill="none" stroke="black" d="M582.598,-353.954C582.598,-345.407 582.598,-336.861 582.598,-328.314"/>
<polygon fill="black" stroke="black" points="586.099,-328.281 582.598,-318.281 579.099,-328.281 586.099,-328.281"/>
</g>
<!-- CheckCommitResult -->
<g id="node19" class="node"><title>CheckCommitResult</title>
<polygon fill="none" stroke="black" points="582.598,-246 463.185,-228 582.598,-210 702.012,-228 582.598,-246"/>
<text text-anchor="middle" x="582.598" y="-223.8" font-family="Times,serif" font-size="14.00">CheckCommitResult</text>
</g>
<!-- NewEvents&#45;&gt;CheckCommitResult -->
<g id="edge19" class="edge"><title>NewEvents&#45;&gt;CheckCommitResult</title>
<path fill="none" stroke="black" d="M582.598,-281.954C582.598,-273.407 582.598,-264.861 582.598,-256.314"/>
<polygon fill="black" stroke="black" points="586.099,-256.281 582.598,-246.281 579.099,-256.281 586.099,-256.281"/>
</g>
<!-- CommitEvents -->
<g id="node28" class="node"><title>CommitEvents</title>
<ellipse fill="none" stroke="black" cx="1011.71" cy="-260" rx="63.3357" ry="18"/>
<text text-anchor="middle" x="1011.71" y="-255.8" font-family="Times,serif" font-size="14.00">CommitEvents</text>
</g>
<!-- NewEvents&#45;&gt;CommitEvents -->
<g id="edge18" class="edge"><title>NewEvents&#45;&gt;CommitEvents</title>
<path fill="none" stroke="black" d="M638.126,-294.893C715.383,-287.658 856.702,-274.423 941.334,-266.497"/>
<polygon fill="black" stroke="black" points="941.736,-269.975 951.366,-265.558 941.083,-263.005 941.736,-269.975"/>
</g>
<!-- CheckCommitResult&#45;&gt;RillResult -->
<g id="edge21" class="edge"><title>CheckCommitResult&#45;&gt;RillResult</title>
<path fill="none" stroke="black" d="M582.598,-209.859C582.598,-201.268 582.598,-192.677 582.598,-184.085"/>
<polygon fill="black" stroke="black" points="586.099,-184 582.598,-174 579.099,-184 586.099,-184"/>
</g>
<!-- RillResult&#45;&gt;TranslateToHttp -->
<g id="edge22" class="edge"><title>RillResult&#45;&gt;TranslateToHttp</title>
<path fill="none" stroke="black" d="M528.742,-156C483.753,-156 418.535,-156 367.739,-156"/>
<polygon fill="black" stroke="black" points="367.458,-152.5 357.458,-156 367.458,-159.5 367.458,-152.5"/>
</g>
<!-- Repository -->
<g id="node21" class="node"><title>Repository</title>
<text text-anchor="middle" x="830.245" y="-781.8" font-family="Times,serif" font-size="14.00">Repository</text>
</g>
<!-- RetrieveEvents -->
<g id="node26" class="node"><title>RetrieveEvents</title>
<ellipse fill="none" stroke="black" cx="1011.71" cy="-732" rx="64.2614" ry="18"/>
<text text-anchor="middle" x="1011.71" y="-727.8" font-family="Times,serif" font-size="14.00">RetrieveEvents</text>
</g>
<!-- RetrieveAggregates&#45;&gt;RetrieveEvents -->
<g id="edge8" class="edge"><title>RetrieveAggregates&#45;&gt;RetrieveEvents</title>
<path fill="none" stroke="black" d="M910.744,-732C919.572,-732 928.533,-732 937.281,-732"/>
<polygon fill="black" stroke="black" points="937.431,-735.5 947.431,-732 937.431,-728.5 937.431,-735.5"/>
</g>
<!-- HandleEvents -->
<g id="node23" class="node"><title>HandleEvents</title>
<polygon fill="none" stroke="black" points="903.865,-665.562 830.245,-678 756.626,-665.562 756.694,-645.438 903.796,-645.438 903.865,-665.562"/>
<text text-anchor="middle" x="830.245" y="-655.8" font-family="Times,serif" font-size="14.00">HandleEvents</text>
</g>
<!-- Aggregates -->
<g id="node24" class="node"><title>Aggregates</title>
<polygon fill="none" stroke="black" points="903.971,-606 786.69,-606 756.519,-570 873.801,-570 903.971,-606"/>
<text text-anchor="middle" x="830.245" y="-583.8" font-family="Times,serif" font-size="14.00">Aggregates</text>
</g>
<!-- HandleEvents&#45;&gt;Aggregates -->
<g id="edge11" class="edge"><title>HandleEvents&#45;&gt;Aggregates</title>
<path fill="none" stroke="black" d="M830.245,-645.311C830.245,-635.655 830.245,-626 830.245,-616.344"/>
<polygon fill="black" stroke="black" points="833.745,-616.281 830.245,-606.281 826.745,-616.281 833.745,-616.281"/>
</g>
<!-- Aggregates&#45;&gt;HandleCommand -->
<g id="edge12" class="edge"><title>Aggregates&#45;&gt;HandleCommand</title>
<path fill="none" stroke="black" d="M771.341,-588C744.814,-588 712.617,-588 682.431,-588"/>
<polygon fill="black" stroke="black" points="682.283,-584.5 672.283,-588 682.283,-591.5 682.283,-584.5"/>
</g>
<!-- EventStore -->
<g id="node25" class="node"><title>EventStore</title>
<text text-anchor="middle" x="1011.71" y="-781.8" font-family="Times,serif" font-size="14.00">EventStore</text>
</g>
<!-- Events -->
<g id="node27" class="node"><title>Events</title>
<polygon fill="none" stroke="black" points="1061.92,-678 982.041,-678 961.491,-642 1041.37,-642 1061.92,-678"/>
<text text-anchor="middle" x="1011.71" y="-655.8" font-family="Times,serif" font-size="14.00">Events</text>
</g>
<!-- RetrieveEvents&#45;&gt;Events -->
<g id="edge9" class="edge"><title>RetrieveEvents&#45;&gt;Events</title>
<path fill="none" stroke="black" d="M1011.71,-713.954C1011.71,-705.407 1011.71,-696.861 1011.71,-688.314"/>
<polygon fill="black" stroke="black" points="1015.21,-688.281 1011.71,-678.281 1008.21,-688.281 1015.21,-688.281"/>
</g>
<!-- Events&#45;&gt;HandleEvents -->
<g id="edge10" class="edge"><title>Events&#45;&gt;HandleEvents</title>
<path fill="none" stroke="black" d="M971.593,-660C954.654,-660 934.139,-660 914.086,-660"/>
<polygon fill="black" stroke="black" points="913.981,-656.5 903.981,-660 913.981,-663.5 913.981,-656.5"/>
</g>
<!-- CommitEvents&#45;&gt;CheckCommitResult -->
<g id="edge20" class="edge"><title>CommitEvents&#45;&gt;CheckCommitResult</title>
<path fill="none" stroke="black" d="M950.41,-255.482C878.146,-250.068 756.404,-240.947 673.144,-234.709"/>
<polygon fill="black" stroke="black" points="673.167,-231.201 662.933,-233.944 672.644,-238.181 673.167,-231.201"/>
</g>
</g>
</svg>
