<?xml version="1.0" encoding="utf-8"?>
<!-- Generator: Adobe Illustrator 16.0.3, SVG Export Plug-In . SVG Version: 6.00 Build 0)  -->
<!DOCTYPE svg PUBLIC "-//W3C//DTD SVG 1.1//EN" "http://www.w3.org/Graphics/SVG/1.1/DTD/svg11.dtd">
<svg version="1.1" id="Layer_1" xmlns="http://www.w3.org/2000/svg" xmlns:xlink="http://www.w3.org/1999/xlink" x="0px" y="0px"
	 width="14.993px" height="15px" viewBox="248.454 248.8 14.993 15" enable-background="new 248.454 248.8 14.993 15"
	 xml:space="preserve">
<path fill="#AAAAAA" d="M263.276,261.407l-5.122-5.142l5.134-5.076c0.211-0.21,0.211-0.554,0-0.765l-1.46-1.468
	c-0.102-0.102-0.238-0.156-0.383-0.156s-0.281,0.059-0.383,0.156l-5.11,5.06l-5.119-5.056c-0.102-0.102-0.238-0.156-0.383-0.156
	c-0.144,0-0.281,0.059-0.382,0.156l-1.457,1.468c-0.21,0.211-0.21,0.555,0,0.765l5.134,5.076l-5.119,5.138
	c-0.102,0.102-0.16,0.238-0.16,0.383c0,0.144,0.054,0.28,0.16,0.382l1.46,1.469c0.105,0.105,0.242,0.16,0.382,0.16
	c0.137,0,0.277-0.051,0.383-0.16l5.099-5.123l5.103,5.119c0.105,0.105,0.242,0.159,0.383,0.159c0.137,0,0.277-0.05,0.383-0.159
	l1.46-1.469c0.102-0.102,0.16-0.238,0.16-0.382C263.437,261.646,263.378,261.509,263.276,261.407z"/>
</svg>
