<?xml version="1.0" encoding="utf-8"?>
<!-- Generator: Adobe Illustrator 16.0.3, SVG Export Plug-In . SVG Version: 6.00 Build 0)  -->
<!DOCTYPE svg PUBLIC "-//W3C//DTD SVG 1.1//EN" "http://www.w3.org/Graphics/SVG/1.1/DTD/svg11.dtd">
<svg version="1.1" id="Layer_1" xmlns="http://www.w3.org/2000/svg" xmlns:xlink="http://www.w3.org/1999/xlink" x="0px" y="0px"
	 width="512px" height="512px" viewBox="0 0 512 512" enable-background="new 0 0 512 512" xml:space="preserve">
<path fill="#AAAAAA" d="M443.6,387.1L312.4,255.4l131.5-130c5.399-5.4,5.399-14.2,0-19.6l-37.4-37.6c-2.6-2.6-6.1-4-9.8-4
	s-7.2,1.5-9.8,4L256,197.8L124.9,68.3c-2.6-2.6-6.1-4-9.8-4c-3.7,0-7.2,1.5-9.8,4L68,105.9c-5.4,5.4-5.4,14.2,0,19.6l131.5,130
	L68.4,387.1c-2.6,2.601-4.1,6.101-4.1,9.801c0,3.699,1.4,7.199,4.1,9.8l37.4,37.6c2.7,2.7,6.2,4.101,9.8,4.101
	c3.5,0,7.1-1.301,9.8-4.101L256,313.1L386.7,444.2c2.7,2.7,6.2,4.1,9.8,4.1c3.5,0,7.1-1.3,9.8-4.1l37.4-37.601
	c2.6-2.6,4.1-6.1,4.1-9.8C447.7,393.2,446.2,389.7,443.6,387.1z"/>
</svg>
