<?xml version="1.0" encoding="utf-8"?>
<!-- Generator: Adobe Illustrator 16.0.3, SVG Export Plug-In . SVG Version: 6.00 Build 0)  -->
<!DOCTYPE svg PUBLIC "-//W3C//DTD SVG 1.1//EN" "http://www.w3.org/Graphics/SVG/1.1/DTD/svg11.dtd">
<svg version="1.1" id="Layer_1" xmlns="http://www.w3.org/2000/svg" xmlns:xlink="http://www.w3.org/1999/xlink" x="0px" y="0px"
	 width="200.786px" height="51.438px" viewBox="0 0 200.786 51.438" enable-background="new 0 0 200.786 51.438"
	 xml:space="preserve">
<g>
	<g>
		<path fill="#FF5D76" d="M16.645,46.596C16.857,35.809,3.355,27.334,6.283,15.639c0,0-1.022,1.039-3.299,3.299
			C-1.41,23.334-0.23,29.723,3.599,33.555C5.398,35.354,16.645,46.596,16.645,46.596z"/>
		<path fill="#3FD8FC" d="M33.373,4.793c-0.213,10.785,13.29,19.262,10.361,30.959c0,0,1.023-1.041,3.3-3.299
			c4.394-4.398,3.216-10.787-0.614-14.619C44.619,16.036,33.373,4.793,33.373,4.793z"/>
		<g>
			<path fill="#FFCF76" d="M16.805,5.239c0,0-5.72,3.801-7.033,8.051c-3.776,12.238,9.896,19.834,10.336,34.041
				c0.075,2.439,2.14,3.893,4.602,3.893c2.092,0,4.36-1.172,4.827-3.893C32.133,32.165,14.643,20.934,16.805,5.239z"/>
		</g>
		<g>
			<path fill="#A9DE65" d="M33.214,46.151c0,0,5.72-3.799,7.033-8.051C44.023,25.864,30.35,18.266,29.91,4.059
				c-0.074-2.441-2.139-3.893-4.601-3.893c-2.093,0-4.36,1.172-4.827,3.893C17.886,19.225,35.375,30.454,33.214,46.151z"/>
		</g>
	</g>
	<g display="none">
		<path display="inline" d="M66.441,30.359c0,0,2.055,2.082,4.932,2.082c1.809,0,3.344-1.013,3.344-2.849
			c0-4.193-9.371-3.288-9.371-9.233c0-3.014,2.603-5.398,6.246-5.398c3.59,0,5.48,1.945,5.48,1.945l-1.233,2.246
			c0,0-1.781-1.67-4.247-1.67c-2.053,0-3.506,1.287-3.506,2.823c0,3.999,9.369,2.931,9.369,9.206c0,2.986-2.302,5.452-6.137,5.452
			c-4.109,0-6.41-2.547-6.41-2.547L66.441,30.359z"/>
		<path display="inline" d="M81.287,23.099h-1.808v-2.137h1.89v-4h2.576v4h3.342v2.137h-3.342v6.165
			c0,2.766,1.945,3.123,2.959,3.123c0.383,0,0.629-0.053,0.629-0.053v2.355c0,0-0.383,0.055-0.932,0.055
			c-1.779,0-5.314-0.549-5.314-5.18V23.099z"/>
		<path display="inline" d="M90.326,20.77h2.657v8.274c0,1.919,0.384,3.453,2.604,3.453c2.821,0,4.493-2.494,4.493-5.233V20.77
			h2.656v13.864h-2.574v-1.837c0-0.575,0.055-1.012,0.055-1.012h-0.055c-0.576,1.369-2.385,3.178-5.096,3.178
			c-3.123,0-4.74-1.644-4.74-5.315V20.77z"/>
		<path display="inline" d="M112.266,20.441c3.206,0,4.275,2.192,4.275,2.192h0.055c0,0-0.055-0.412-0.055-0.932V15.29h2.658v19.343
			h-2.522v-1.315c0-0.548,0.026-0.932,0.026-0.932h-0.053c0,0-1.123,2.576-4.549,2.576c-3.752,0-6.109-2.959-6.109-7.262
			C105.992,23.291,108.595,20.441,112.266,20.441z M112.622,32.66c2.055,0,4.001-1.452,4.001-4.985c0-2.467-1.289-4.933-3.92-4.933
			c-2.189,0-3.997,1.809-3.997,4.958C108.706,30.714,110.32,32.66,112.622,32.66z"/>
		<path display="inline" d="M122.621,37.511c0,0,0.766,0.574,1.616,0.574c1.068,0,1.973-0.767,2.493-2.027l0.686-1.587
			l-5.811-13.701h2.988l3.479,9.067c0.274,0.714,0.521,1.672,0.521,1.672h0.055c0,0,0.22-0.932,0.466-1.644l3.369-9.096h2.877
			l-6.492,16.356c-0.85,2.138-2.548,3.261-4.494,3.261c-1.561,0-2.684-0.851-2.684-0.851L122.621,37.511z"/>
		<path display="inline" d="M138.533,23.099h-1.876v-2.137h1.876v-0.657c0-4.576,3.453-5.151,5.207-5.151
			c0.602,0,1.014,0.082,1.014,0.082v2.274c0,0-0.275-0.055-0.686-0.055c-1.016,0-2.906,0.33-2.906,2.906v0.602h3.29v2.137h-3.29
			v11.535h-2.629V23.099z"/>
		<path display="inline" d="M160.855,20.441c4.137,0,7.479,3.041,7.479,7.233c0,4.218-3.342,7.287-7.479,7.287
			c-4.138,0-7.48-3.069-7.48-7.287C153.375,23.482,156.718,20.441,160.855,20.441z M160.855,32.66c2.629,0,4.767-2.083,4.767-4.985
			c0-2.877-2.138-4.933-4.767-4.933c-2.604,0-4.768,2.056-4.768,4.933C156.088,30.577,158.252,32.66,160.855,32.66z"/>
		<path display="inline" d="M169.864,20.77h2.823l2.877,9.726c0.219,0.712,0.327,1.479,0.355,1.479h0.056
			c0,0,0.136-0.767,0.355-1.479l3.014-9.698h2.438l2.986,9.698c0.219,0.712,0.384,1.479,0.384,1.479h0.054
			c0,0,0.109-0.767,0.328-1.479l2.904-9.726h2.796l-4.468,13.864h-2.93l-2.877-8.904c-0.22-0.714-0.382-1.507-0.382-1.507h-0.058
			c0,0-0.164,0.793-0.383,1.507l-2.85,8.904h-2.959L169.864,20.77z"/>
		<rect x="147.45" y="15.29" display="inline" width="2.657" height="19.361"/>
	</g>
</g>
<g>
	<path fill="#FAFEFF" d="M71.507,34.656c-1.404,0-2.747-0.238-4.03-0.715c-1.283-0.477-2.47-1.209-3.562-2.197l1.924-2.288
		c0.884,0.763,1.777,1.348,2.678,1.755c0.901,0.408,1.924,0.611,3.068,0.611c0.988,0,1.772-0.208,2.353-0.624
		c0.581-0.416,0.871-0.97,0.871-1.664v-0.052c0-0.329-0.057-0.62-0.169-0.871c-0.113-0.251-0.322-0.489-0.625-0.715
		c-0.305-0.225-0.722-0.433-1.251-0.624c-0.53-0.19-1.221-0.381-2.072-0.572c-0.973-0.225-1.838-0.481-2.593-0.767
		c-0.756-0.286-1.391-0.633-1.903-1.04s-0.904-0.906-1.173-1.495c-0.27-0.589-0.404-1.3-0.404-2.132v-0.052
		c0-0.78,0.154-1.495,0.464-2.145c0.31-0.65,0.735-1.205,1.276-1.664c0.542-0.459,1.193-0.819,1.954-1.079
		c0.761-0.26,1.592-0.39,2.494-0.39c1.334,0,2.535,0.195,3.601,0.585c1.066,0.39,2.067,0.958,3.003,1.703l-1.716,2.418
		c-0.832-0.606-1.655-1.07-2.47-1.391c-0.815-0.32-1.638-0.481-2.47-0.481c-0.936,0-1.664,0.208-2.184,0.624s-0.78,0.927-0.78,1.534
		v0.052c0,0.347,0.061,0.654,0.182,0.923c0.122,0.269,0.343,0.512,0.665,0.728c0.321,0.217,0.764,0.42,1.329,0.611
		c0.564,0.191,1.282,0.39,2.15,0.598c0.956,0.243,1.803,0.512,2.542,0.806c0.739,0.295,1.351,0.654,1.838,1.079
		c0.486,0.425,0.856,0.919,1.107,1.482c0.252,0.563,0.378,1.218,0.378,1.963v0.052c0,0.849-0.159,1.612-0.478,2.288
		c-0.318,0.676-0.761,1.248-1.328,1.716c-0.567,0.468-1.249,0.823-2.045,1.066C73.334,34.535,72.46,34.656,71.507,34.656z"/>
	<path fill="#FAFEFF" d="M86.015,34.63c-0.572,0-1.104-0.069-1.592-0.208c-0.49-0.138-0.914-0.364-1.272-0.676
		c-0.358-0.312-0.633-0.724-0.825-1.235C82.133,32,82.037,31.363,82.037,30.6v-7.228h-1.742v-2.704h1.742v-3.77h3.172v3.77h3.692
		v2.704h-3.692v6.734c0,0.607,0.147,1.044,0.442,1.313c0.294,0.269,0.71,0.403,1.248,0.403c0.676,0,1.326-0.156,1.95-0.468v2.574
		c-0.399,0.225-0.823,0.399-1.274,0.52C87.124,34.569,86.604,34.63,86.015,34.63z"/>
	<path fill="#FAFEFF" d="M96.766,34.682c-1.557,0-2.758-0.477-3.604-1.43c-0.848-0.953-1.271-2.236-1.271-3.848v-8.736h3.172v7.782
		c0,1.072,0.254,1.898,0.76,2.478c0.508,0.579,1.225,0.869,2.154,0.869c0.91,0,1.648-0.298,2.215-0.895
		c0.568-0.596,0.852-1.431,0.852-2.503v-7.73h3.172v13.728h-3.172v-2.154c-0.449,0.665-1.012,1.237-1.686,1.718
		S97.818,34.682,96.766,34.682z"/>
	<path fill="#FAFEFF" d="M113.834,34.682c-0.814,0-1.603-0.156-2.365-0.468c-0.764-0.312-1.439-0.771-2.028-1.378
		c-0.59-0.606-1.066-1.352-1.43-2.236c-0.364-0.884-0.546-1.898-0.546-3.042v-0.052c0-1.144,0.177-2.158,0.531-3.042
		c0.354-0.884,0.825-1.629,1.414-2.236c0.588-0.606,1.267-1.066,2.036-1.378s1.561-0.468,2.373-0.468
		c1.124,0,2.058,0.243,2.801,0.728c0.744,0.486,1.366,1.049,1.868,1.69v-7.384h3.172v18.98h-3.172l0.026-2.288
		c-0.503,0.711-1.131,1.317-1.885,1.82C115.875,34.431,114.943,34.682,113.834,34.682z M114.575,31.952
		c0.519,0,1.02-0.104,1.503-0.312s0.907-0.507,1.27-0.897c0.363-0.39,0.652-0.854,0.868-1.391c0.217-0.537,0.324-1.135,0.324-1.794
		v-0.052c0-0.658-0.107-1.261-0.324-1.807c-0.216-0.546-0.505-1.01-0.868-1.391c-0.362-0.381-0.786-0.676-1.27-0.884
		s-0.984-0.312-1.503-0.312c-0.535,0-1.041,0.1-1.516,0.299c-0.476,0.199-0.895,0.49-1.257,0.871
		c-0.363,0.381-0.648,0.845-0.855,1.391c-0.207,0.546-0.311,1.157-0.311,1.833v0.052c0,0.659,0.104,1.261,0.311,1.807
		c0.207,0.546,0.492,1.01,0.855,1.391c0.362,0.382,0.781,0.676,1.257,0.884C113.534,31.848,114.04,31.952,114.575,31.952z"/>
	<path fill="#FAFEFF" d="M128.395,38.634c-0.659,0-1.244-0.074-1.755-0.221c-0.512-0.147-1.01-0.351-1.495-0.611l1.065-2.34
		c0.295,0.156,0.594,0.282,0.897,0.377c0.303,0.095,0.619,0.143,0.949,0.143c0.45,0,0.823-0.113,1.118-0.338
		c0.294-0.226,0.571-0.642,0.832-1.248l-5.721-13.728h3.354l3.899,10.192l3.562-10.192h3.275l-5.46,14.118
		c-0.277,0.71-0.563,1.309-0.857,1.794c-0.295,0.485-0.624,0.879-0.988,1.183c-0.364,0.303-0.763,0.524-1.196,0.663
		C129.443,38.564,128.949,38.634,128.395,38.634z"/>
	<path fill="#FAFEFF" d="M141.784,23.372h-1.742v-2.626h1.742v-0.988c0-1.525,0.373-2.66,1.118-3.406
		c0.729-0.728,1.759-1.092,3.094-1.092c0.555,0,1.031,0.035,1.431,0.104c0.398,0.07,0.771,0.156,1.118,0.26v2.652
		c-0.311-0.104-0.607-0.186-0.892-0.247c-0.284-0.061-0.598-0.091-0.941-0.091c-1.205,0-1.808,0.693-1.808,2.08v0.754h3.641v2.6
		h-3.589v11.024h-3.172V23.372z M151.015,15.416h3.172v18.98h-3.172V15.416z"/>
	<path fill="#FAFEFF" d="M164.82,34.708c-1.04,0-2.007-0.187-2.899-0.559s-1.663-0.879-2.313-1.521
		c-0.65-0.641-1.157-1.395-1.521-2.262c-0.363-0.867-0.546-1.785-0.546-2.756v-0.052c0-0.988,0.187-1.915,0.56-2.782
		c0.372-0.866,0.884-1.625,1.534-2.275c0.649-0.65,1.421-1.166,2.313-1.547s1.867-0.572,2.925-0.572s2.032,0.187,2.925,0.559
		c0.893,0.373,1.664,0.884,2.314,1.534s1.157,1.404,1.521,2.262c0.363,0.858,0.546,1.781,0.546,2.769v0.052
		c0,0.971-0.187,1.889-0.56,2.756c-0.373,0.867-0.884,1.625-1.534,2.275c-0.649,0.65-1.426,1.166-2.326,1.547
		C166.856,34.517,165.877,34.708,164.82,34.708z M164.872,31.978c0.638,0,1.21-0.117,1.719-0.351
		c0.508-0.234,0.943-0.55,1.305-0.949s0.637-0.862,0.826-1.391s0.285-1.087,0.285-1.677v-0.052c0-0.606-0.104-1.179-0.311-1.716
		c-0.207-0.537-0.495-1.005-0.865-1.404c-0.371-0.398-0.81-0.715-1.318-0.949c-0.508-0.234-1.072-0.351-1.692-0.351
		s-1.185,0.117-1.692,0.351c-0.508,0.234-0.943,0.546-1.305,0.936c-0.361,0.39-0.638,0.854-0.827,1.391
		c-0.189,0.538-0.284,1.101-0.284,1.69v0.052c0,0.607,0.104,1.174,0.311,1.703c0.206,0.529,0.495,0.997,0.865,1.404
		s0.81,0.728,1.317,0.962C163.714,31.861,164.27,31.978,164.872,31.978z"/>
	<path fill="#FAFEFF" d="M173.232,20.668h3.224l2.756,9.412l3.042-9.464h2.679L188,30.08l2.809-9.412h3.146L189.456,34.5h-2.808
		l-3.068-9.386l-3.094,9.386h-2.808L173.232,20.668z"/>
</g>
</svg>
