<?xml version="1.0" encoding="utf-8"?>
<!-- Generator: Adobe Illustrator 16.0.3, SVG Export Plug-In . SVG Version: 6.00 Build 0)  -->
<!DOCTYPE svg PUBLIC "-//W3C//DTD SVG 1.1//EN" "http://www.w3.org/Graphics/SVG/1.1/DTD/svg11.dtd">
<svg version="1.1" id="Layer_1" xmlns="http://www.w3.org/2000/svg" xmlns:xlink="http://www.w3.org/1999/xlink" x="0px" y="0px"
	 width="141.732px" height="141.732px" viewBox="0 0 141.732 141.732" enable-background="new 0 0 141.732 141.732"
	 xml:space="preserve">
<g>
	<g>
		<path fill="#FF5D76" d="M60.707,91.845c0.213-10.787-13.289-19.262-10.361-30.957c0,0-1.022,1.039-3.299,3.299
			c-4.395,4.396-3.215,10.785,0.614,14.617C49.46,80.603,60.707,91.845,60.707,91.845z"/>
		<path fill="#3FD8FC" d="M77.436,50.042c-0.213,10.785,13.289,19.262,10.361,30.959c0,0,1.023-1.041,3.299-3.299
			c4.395-4.398,3.217-10.787-0.613-14.619C88.682,61.285,77.436,50.042,77.436,50.042z"/>
		<g>
			<path fill="#FFCF76" d="M60.867,50.488c0,0-5.72,3.801-7.033,8.051C50.057,70.777,63.73,78.373,64.169,92.58
				c0.075,2.439,2.14,3.893,4.602,3.893c2.092,0,4.36-1.172,4.827-3.893C76.195,77.414,58.705,66.183,60.867,50.488z"/>
		</g>
		<g>
			<path fill="#A9DE65" d="M77.275,91.4c0,0,5.721-3.799,7.033-8.051c3.777-12.236-9.896-19.834-10.336-34.041
				c-0.074-2.441-2.139-3.893-4.601-3.893c-2.093,0-4.36,1.172-4.827,3.893C61.948,64.474,79.438,75.703,77.275,91.4z"/>
		</g>
	</g>
</g>
<rect id="_x3C_Slice_x3E_" x="34.5" y="36.645" fill="none" width="69" height="69"/>
</svg>
