<?xml version="1.0" encoding="utf-8"?>
<!-- Generator: Adobe Illustrator 16.0.3, SVG Export Plug-In . SVG Version: 6.00 Build 0)  -->
<!DOCTYPE svg PUBLIC "-//W3C//DTD SVG 1.1//EN" "http://www.w3.org/Graphics/SVG/1.1/DTD/svg11.dtd">
<svg version="1.1" id="Layer_1" xmlns="http://www.w3.org/2000/svg" xmlns:xlink="http://www.w3.org/1999/xlink" x="0px" y="0px"
	 width="30px" height="30px" viewBox="0 0 30 30" enable-background="new 0 0 30 30" xml:space="preserve">
<polyline fill="#FFFFFF" points="7.125,1.875 7.875,27.5 13.875,28.625 28.375,28 28.375,10.125 21.5,1.875 "/>
<polyline fill="#FFFFFF" points="7.125,7.04 1.375,7.04 0.75,24.25 14.125,24.25 "/>
<g>
	<path fill="#555A5F" d="M28.705,7.506l-5.461-6.333l-1.08-1.254H9.262c-1.732,0-3.133,1.403-3.133,3.136V7.04h1.942L8.07,3.818
		c0.002-0.975,0.786-1.764,1.758-1.764l11.033-0.01v5.228c0.002,1.947,1.576,3.523,3.525,3.523h3.818l-0.188,15.081
		c-0.004,0.97-0.791,1.753-1.76,1.761l-16.57-0.008c-0.887,0-1.601-0.87-1.605-1.941V24.41H6.138v1.904
		c0,1.912,1.282,3.468,2.856,3.468l17.831-0.005c1.731,0,3.137-1.409,3.137-3.139V8.966L28.705,7.506"/>
	<path fill="#08743B" d="M20.223,25.382H0V6.068h20.223V25.382 M1.943,23.438h16.333V8.012H1.943"/>
	<polyline fill="#08743B" points="15.73,20.822 12.325,20.822 10.001,17.538 7.561,20.822 4.14,20.822 8.384,15.486 4.957,10.817 
		8.412,10.817 10.016,13.355 11.726,10.817 15.242,10.817 11.649,15.486 15.73,20.822 	"/>
</g>
</svg>
