<?xml version="1.0" encoding="utf-8"?>
<!-- Generator: Adobe Illustrator 16.0.3, SVG Export Plug-In . SVG Version: 6.00 Build 0)  -->
<!DOCTYPE svg PUBLIC "-//W3C//DTD SVG 1.1//EN" "http://www.w3.org/Graphics/SVG/1.1/DTD/svg11.dtd">
<svg version="1.1" xmlns="http://www.w3.org/2000/svg" xmlns:xlink="http://www.w3.org/1999/xlink" x="0px" y="0px"
	 width="191.064px" height="51.057px" viewBox="0 0 191.064 51.057" enable-background="new 0 0 191.064 51.057"
	 xml:space="preserve">
<g id="Layer_2" display="none">
	<rect x="-4.31" y="-1.937" display="inline" stroke="#000000" stroke-miterlimit="10" width="201.217" height="55.682"/>
</g>
<g id="Layer_1">
	<g>
		<g>
			<path fill="#FFFFFF" d="M16.473,46.43C16.686,35.643,3.184,27.168,6.112,15.473c0,0-1.022,1.039-3.299,3.299
				c-4.395,4.396-3.215,10.785,0.614,14.617C5.227,35.188,16.473,46.43,16.473,46.43z"/>
			<path fill="#FFFFFF" d="M33.202,4.627c-0.213,10.785,13.29,19.262,10.361,30.959c0,0,1.023-1.041,3.3-3.299
				c4.394-4.398,3.216-10.787-0.614-14.619C44.448,15.869,33.202,4.627,33.202,4.627z"/>
			<g>
				<path fill="#FFFFFF" d="M16.633,5.072c0,0-5.72,3.801-7.033,8.051c-3.776,12.238,9.896,19.834,10.336,34.041
					c0.075,2.439,2.14,3.893,4.602,3.893c2.092,0,4.36-1.172,4.827-3.893C31.961,31.998,14.471,20.768,16.633,5.072z"/>
			</g>
			<g>
				<path fill="#FFFFFF" d="M33.042,45.984c0,0,5.72-3.799,7.033-8.051C43.852,25.697,30.178,18.1,29.739,3.893
					C29.665,1.451,27.6,0,25.138,0c-2.093,0-4.36,1.172-4.827,3.893C17.714,19.059,35.204,30.287,33.042,45.984z"/>
			</g>
		</g>
		<g>
			<path fill="#FFFFFF" d="M66.27,30.192c0,0,2.055,2.082,4.932,2.082c1.809,0,3.344-1.013,3.344-2.849
				c0-4.193-9.371-3.288-9.371-9.233c0-3.014,2.603-5.398,6.246-5.398c3.59,0,5.48,1.945,5.48,1.945l-1.233,2.246
				c0,0-1.781-1.67-4.247-1.67c-2.053,0-3.506,1.287-3.506,2.823c0,3.999,9.369,2.931,9.369,9.206c0,2.986-2.302,5.452-6.137,5.452
				c-4.109,0-6.41-2.547-6.41-2.547L66.27,30.192z"/>
			<path fill="#FFFFFF" d="M81.116,22.932h-1.808v-2.137h1.89v-4h2.576v4h3.342v2.137h-3.342v6.165c0,2.766,1.945,3.123,2.959,3.123
				c0.383,0,0.629-0.053,0.629-0.053v2.355c0,0-0.383,0.055-0.932,0.055c-1.779,0-5.314-0.549-5.314-5.18V22.932z"/>
			<path fill="#FFFFFF" d="M90.155,20.603h2.657v8.274c0,1.919,0.384,3.453,2.604,3.453c2.821,0,4.493-2.494,4.493-5.233v-6.494
				h2.656v13.864h-2.574V32.63c0-0.575,0.055-1.012,0.055-1.012h-0.055c-0.576,1.369-2.385,3.178-5.096,3.178
				c-3.123,0-4.74-1.644-4.74-5.315V20.603z"/>
			<path fill="#FFFFFF" d="M112.094,20.275c3.206,0,4.275,2.192,4.275,2.192h0.055c0,0-0.055-0.412-0.055-0.932v-6.412h2.658v19.343
				h-2.522v-1.315c0-0.548,0.026-0.932,0.026-0.932h-0.053c0,0-1.123,2.576-4.549,2.576c-3.752,0-6.109-2.959-6.109-7.262
				C105.821,23.124,108.423,20.275,112.094,20.275z M112.451,32.493c2.055,0,4.001-1.452,4.001-4.985
				c0-2.467-1.289-4.933-3.92-4.933c-2.189,0-3.997,1.809-3.997,4.958C108.535,30.547,110.149,32.493,112.451,32.493z"/>
			<path fill="#FFFFFF" d="M122.45,37.344c0,0,0.766,0.574,1.616,0.574c1.068,0,1.973-0.767,2.493-2.027l0.686-1.587l-5.811-13.701
				h2.988l3.479,9.067c0.274,0.714,0.521,1.672,0.521,1.672h0.055c0,0,0.22-0.932,0.466-1.644l3.369-9.096h2.877l-6.492,16.356
				c-0.85,2.138-2.548,3.261-4.494,3.261c-1.561,0-2.684-0.851-2.684-0.851L122.45,37.344z"/>
			<path fill="#FFFFFF" d="M138.362,22.932h-1.876v-2.137h1.876v-0.657c0-4.576,3.453-5.151,5.207-5.151
				c0.602,0,1.014,0.082,1.014,0.082v2.274c0,0-0.275-0.055-0.686-0.055c-1.016,0-2.906,0.33-2.906,2.906v0.602h3.29v2.137h-3.29
				v11.535h-2.629V22.932z"/>
			<path fill="#FFFFFF" d="M160.684,20.275c4.137,0,7.479,3.041,7.479,7.233c0,4.218-3.342,7.287-7.479,7.287
				c-4.138,0-7.48-3.069-7.48-7.287C153.204,23.315,156.546,20.275,160.684,20.275z M160.684,32.493
				c2.629,0,4.767-2.083,4.767-4.985c0-2.877-2.138-4.933-4.767-4.933c-2.604,0-4.768,2.056-4.768,4.933
				C155.917,30.411,158.081,32.493,160.684,32.493z"/>
			<path fill="#FFFFFF" d="M169.693,20.603h2.823l2.877,9.726c0.219,0.712,0.327,1.479,0.355,1.479h0.056
				c0,0,0.136-0.767,0.355-1.479l3.014-9.698h2.438l2.986,9.698c0.219,0.712,0.384,1.479,0.384,1.479h0.054
				c0,0,0.109-0.767,0.328-1.479l2.904-9.726h2.796l-4.468,13.864h-2.93l-2.877-8.904c-0.22-0.714-0.382-1.507-0.382-1.507h-0.058
				c0,0-0.164,0.793-0.383,1.507l-2.85,8.904h-2.959L169.693,20.603z"/>
			<rect x="147.279" y="15.124" fill="#FFFFFF" width="2.657" height="19.361"/>
		</g>
	</g>
	<g>
	</g>
	<g>
	</g>
</g>
</svg>
