<?xml version="1.0"?><svg width="170.66666666666666" height="170.66666666666666" xmlns="http://www.w3.org/2000/svg" xmlns:xlink="http://www.w3.org/1999/xlink">
 <defs>
  <radialGradient xlink:href="#linearGradient853" r="0.5" id="radialGradient864" fy="0.149425" fx="0.5" cy="0.5" cx="0.5"/>
  <linearGradient id="linearGradient841">
   <stop stop-color="#ffffff" offset="0" id="stop842"/>
   <stop stop-color="#ffffff" stop-opacity="0" offset="1" id="stop843"/>
  </linearGradient>
  <linearGradient id="linearGradient1290">
   <stop stop-color="#df421e" offset="0" id="stop1291"/>
   <stop stop-color="#990000" offset="1" id="stop1292"/>
  </linearGradient>
  <linearGradient id="linearGradient846">
   <stop stop-color="#e7e7e7" offset="0" id="stop847"/>
   <stop stop-color="#a5a5a5" offset="1" id="stop848"/>
  </linearGradient>
  <linearGradient id="linearGradient853">
   <stop stop-color="#000000" stop-opacity="0.297521" offset="0" id="stop854"/>
   <stop stop-color="#000000" stop-opacity="0" offset="1" id="stop855"/>
  </linearGradient>
  <radialGradient xlink:href="#linearGradient853" r="0.5" id="radialGradient861" fy="0.298851" fx="0.507042" cy="0.5" cx="0.5"/>
  <linearGradient id="linearGradient1507">
   <stop stop-color="#000000" stop-opacity="0.095506" offset="0" id="stop1508"/>
   <stop stop-color="#000000" stop-opacity="0" offset="1" id="stop1510"/>
  </linearGradient>
  <linearGradient id="linearGradient1501">
   <stop stop-color="#ffffff" offset="0" id="stop1502"/>
   <stop stop-color="#ffffff" stop-opacity="0" offset="1" id="stop1504"/>
  </linearGradient>
  <linearGradient id="linearGradient1492">
   <stop stop-color="#dadada" offset="0" id="stop1493"/>
   <stop stop-color="#f1f1f1" offset="0.349231" id="stop1496"/>
   <stop stop-color="#f0f0f0" offset="1" id="stop1494"/>
  </linearGradient>
  <linearGradient y2="1.179688" y1="0.210938" xlink:href="#linearGradient1492" x2="0.08547" x1="0.880342" id="linearGradient1495"/>
  <linearGradient y2="1.328125" y1="0.328125" xlink:href="#linearGradient1492" x2="-0.376068" x1="0.632479" id="linearGradient1497"/>
  <linearGradient y2="0.546875" y1="0.140625" xlink:href="#linearGradient1501" x2="0.062992" x1="0.858268" id="linearGradient1499"/>
  <linearGradient y2="0.007813" y1="0.976563" xlink:href="#linearGradient1507" x2="0.782609" x1="0.052174" id="linearGradient1506"/>
  <linearGradient y2="0.802721" y1="0.122449" xlink:href="#linearGradient1290" x2="0.865079" x1="0.119048" id="linearGradient1556"/>
  <radialGradient xlink:href="#linearGradient841" r="0.546067" id="radialGradient856" fy="3.52" fx="0.541176" cy="0.892857" cx="0.5"/>
  <linearGradient y2="0.386364" y1="1.606061" xlink:href="#linearGradient853" x2="0.63871" x1="0.109677" id="linearGradient1944"/>
  <linearGradient xlink:href="#linearGradient841" id="linearGradient852"/>
  <linearGradient y2="0.5" y1="0.5" xlink:href="#linearGradient841" x2="1" x1="0" id="linearGradient844"/>
  <linearGradient y2="0.5" y1="0.5" xlink:href="#linearGradient841" x2="1" x1="0" id="linearGradient845"/>
  <linearGradient xlink:href="#linearGradient853" id="linearGradient840"/>
  <linearGradient xlink:href="#linearGradient846" id="linearGradient849"/>
  <linearGradient xlink:href="#linearGradient1290" id="linearGradient860"/>
  <linearGradient xlink:href="#linearGradient846" id="linearGradient851"/>
  <linearGradient xlink:href="#linearGradient846" id="linearGradient858"/>
  <linearGradient xlink:href="#linearGradient846" id="linearGradient850"/>
  <linearGradient xlink:href="#linearGradient853" id="linearGradient859"/>
 </defs>
 <g>
  <title>Layer 1</title>
  <path fill="#ffffff" fill-rule="evenodd" stroke-width="0.42649" stroke-opacity="0.36478" id="path930" d="m17.15938,6.32929l0,36.739241l0,36.739239l0,36.739227l0,36.739243l33.527639,0l33.527641,0l33.527641,0l33.527641,0l0,-36.739243l0,-36.739227l0,-36.739239l-33.527641,-36.739241l-33.527641,0l-33.527641,0l-33.527639,0z"/>
  <g fill="url(#linearGradient1506)" transform="matrix(0.304171,0.000000,0.000000,0.297572,-36.70399,-112.4880)" id="g1552">
   <path fill-opacity="0.75" fill-rule="evenodd" stroke-width="0.95407495pt" id="path1505" d="m173.359589,408.812592l0,122.261017l0,122.260986l0,122.260986l0,122.261047l108.762268,0l108.762299,0l108.762299,0l108.762299,0l0,-122.261047l0,-122.260986l0,-122.260986l-108.762299,-122.261017l-108.762299,0l-108.762299,0l-108.762268,0z"/>
   <path fill-opacity="0.75" fill-rule="evenodd" stroke-width="0.95407495pt" id="path1538" d="m170.125,407.1875c0,164.635437 0,329.270813 0,493.90625c147.177094,0 294.354156,0 441.53125,0c0,-123.760437 0,-247.520813 0,-371.28125c-36.847046,-41.422729 -73.680237,-82.859161 -110.5625,-124.25c-110.322906,0 -220.645844,0 -330.96875,0c0,0.333344 0,1.416656 0,1.625z"/>
   <path fill-opacity="0.75" fill-rule="evenodd" stroke-width="0.95407495pt" id="path1543" d="m166.875,403.9375c0,166.802063 0,333.604187 0,500.40625c149.34375,0 298.6875,0 448.03125,0c0,-125.260437 0,-250.520813 0,-375.78125c-37.45105,-42.089508 -74.888733,-84.192322 -112.375,-126.25c-111.885406,0 -223.770844,0 -335.65625,0c0,0.333344 0,1.416656 0,1.625z"/>
  </g>
  <path fill="url(#linearGradient1495)" fill-rule="evenodd" stroke="#000000" stroke-width="1.4375" stroke-opacity="0.36478" id="rect900" d="m17.214455,6.511467l0,36.739235l0,36.739243l0,36.739243l0,36.739243l33.527645,0l33.527653,0l33.527634,0l33.527641,0l0,-36.739243l0,-36.739243l0,-36.739243l-33.527641,-36.739235l-33.527634,0l-33.527653,0l-33.527645,0z"/>
  <path fill="url(#linearGradient1497)" fill-rule="evenodd" stroke-width="0.95407495pt" id="path906" d="m151.325027,43.250702c-10.108124,-2.992496 -23.205978,-2.568165 -33.100533,-0.862526c1.708405,-10.962328 1.921959,-24.700829 -0.427109,-35.876709l33.527641,36.739235z"/>
  <path fill="url(#linearGradient1499)" fill-rule="evenodd" stroke-width="1.0000000pt" id="path1500" d="m18.198341,17.835236l-0.604015,134.695541l131.675465,0l0.075485,-33.296371c-2.94458,1.132523 -32.692345,-40.997589 -70.141335,-39.185547c-37.482979,1.813698 -27.784729,-56.777485 -61.0056,-62.213623z"/>
  <g fill="url(#linearGradient1944)" transform="matrix(1.124728,0.000000,0.000000,0.821663,16.10701,180.5239)" id="g1660">
   <path fill-opacity="0.226415" id="path1655" d="m57.695061,-158.822006c-2.92186,0.428604 -4.522022,1.587082 -5.87233,6.492004c-1.3503,4.904922 -0.0438,13.73468 1.80983,20.507996c0.760319,2.253433 1.748859,4.433495 2.625,6.656258c-0.500061,3.352676 -1.10833,6.70446 -1.96875,10c-3.282642,13.457275 -7.013439,26.986336 -12.625,39.6875c-7.815899,3.842552 -15.414371,8.098701 -22.62499,12.968758c-4.34883,2.72644 -12.3087,10.38039 -5,14.40625c4.10425,2.326591 8.37575,1.856319 12.25,0c1.93712,-0.928181 3.76543,-2.227428 5.4375,-3.65625c1.67206,-1.428848 3.200121,-2.99638 4.46874,-4.5625c3.908779,-4.926918 7.264439,-10.190506 10.21875,-15.687508c11.71006,-5.26339 23.800278,-9.692284 36.250008,-12.78125c5.205719,4.542336 12.836945,9.11644 19.3125,4.59375c6.491882,-2.957321 5.403664,-11.731583 -2,-11.84375c-4.907928,-0.976624 -9.78054,-0.37323 -14.59375,0.71875c-2.098068,-2.412933 -4.045822,-5.007431 -5.84375,-7.4375c-5.797241,-9.222702 -11.14624,-18.725082 -16.156258,-28.40625c1.357246,-8.879005 2.749352,-18.752525 1.660446,-25.169594c-1.088898,-6.417053 -4.228546,-6.944244 -7.347946,-6.486664zm-0.96875,6.65625c0.7873,-1.74588 2.816528,0.103745 2.781639,2.44017c-0.034901,2.336411 -0.406071,7.56691 -2.062889,9.02858c-1.23735,-3.78389 -1.506031,-9.72287 -0.71875,-11.46875zm4.3125,37.687508c4.557526,9.095177 10.090027,17.696976 17.000008,25.125c-2.03643,0.587326 -4.114815,1.144455 -6.125,1.65625c-7.420425,2.368965 -14.692558,5.214035 -21.843758,8.34375c5.079967,-11.1754 8.433449,-23.111931 10.96875,-35.125zm31.406258,27.9375c2.614632,-0.024979 4.702805,0.640991 4.1875,3.125c-2.204147,-0.562935 -4.124519,-1.636238 -5.9375,-2.9375c0.592735,-0.060349 1.18689,-0.182121 1.75,-0.1875zm-54.437508,18.5c-0.55666,1.063126 -1.002361,2.171982 -1.59375,3.21875c-3.7514,5.751308 -9.178841,12.976528 -16.65624,12.843758c-2.23332,-6.269711 6.921101,-9.765598 11.1875,-12.593758c2.32519,-1.20903 4.70466,-2.315208 7.06249,-3.46875z"/>
   <path fill-opacity="0.226415" id="path1659" d="m57.625,-160.125c-7.613029,1.287231 -8.139351,10.749893 -7.295921,16.868607c0.838921,6.22612 1.834972,12.496475 4.545921,18.225143c-3.3153,16.586632 -7.794418,32.961517 -14.28125,48.625c-9.99464,5.732803 -21.22793,10.304497 -29,19.0625c-2.67738,3.390629 -2.23309,9.091 2.36187,10.513229c8.0907,4.421379 17.184271,-1.669498 22.3461,-7.88406c4.802841,-4.756451 7.40044,-11.415279 11.59391,-16.404186c11.27578,-4.752136 22.721397,-8.834 34.47937,-12.224983c5.550201,4.709808 14.201843,8.944382 20.875,3.90625c6.298363,-2.468719 5.175438,-13.390694 -1.902519,-13.699158c-5.08976,-1.25264 -10.294159,-0.375305 -15.378731,0.386658c-8.644707,-10.55069 -14.650726,-22.848534 -21.21875,-34.71875c0.844803,-9.855484 4.113441,-20.62677 -0.25666,-30.016144c-1.421009,-2.264893 -4.34227,-3.06076 -6.86834,-2.640106zm0.5,10.53125c0.633659,6.844955 -1.525028,-1.020447 0,0zm9.40625,49c2.58345,3.607079 5.236977,7.234833 8.1875,10.59375c-7.886597,2.297211 -15.64061,4.934898 -23.1875,8.1875c4.151749,-9.348381 6.379829,-19.36187 8.96875,-29.21875c2.010422,3.479172 4.020844,6.958328 6.03125,10.4375zm-35.15625,39.125c-2.967319,3.538311 -6.545401,7.398201 -11.375,7.96875c0.83482,-6.017159 7.95048,-7.852322 12.38895,-10.843307c4.274731,-2.888901 -0.831181,1.951958 -1.01395,2.874557z"/>
  </g>
  <path fill="url(#linearGradient1556)" id="path900" d="m78.743446,17.87871c-3.286293,0.482059 -5.086037,1.78504 -6.604767,7.301731c-1.518723,5.516699 -0.049271,15.447779 2.035568,23.06592c0.855156,2.534489 1.966995,4.986469 2.952415,7.486469c-0.562447,3.770851 -1.246574,7.540691 -2.21431,11.247272c-3.692085,15.13578 -7.888222,30.352264 -14.199684,44.637634c-8.79076,4.321815 -17.336979,9.108826 -25.44696,14.586311c-4.891249,3.066505 -13.843929,11.675117 -5.623638,16.203117c4.616158,2.616791 9.420429,2.08786 13.777908,0c2.178741,-1.043945 4.235092,-2.505249 6.115711,-4.112289c1.880611,-1.607071 3.599258,-3.370102 5.026119,-5.131577c4.396301,-5.541428 8.170509,-11.461548 11.493313,-17.644157c13.170616,-5.919884 26.768814,-10.901192 40.771378,-14.375435c5.855034,5.108902 14.438057,10.25351 21.721306,5.166725c7.30159,-3.32618 6.077637,-13.194839 -2.249458,-13.320999c-5.520088,-1.098434 -11.00045,-0.419785 -16.413994,0.808395c-2.359756,-2.71389 -4.550446,-5.631996 -6.572624,-8.365166c-6.520317,-10.373024 -12.536476,-21.0606 -18.171387,-31.949291c1.526535,-9.986462 3.092255,-21.091473 1.867546,-28.308931c-1.224716,-7.217451 -4.755966,-7.810381 -8.264442,-7.295731zm-1.089569,7.486469c0.88549,-1.963638 3.167824,0.11668 3.128586,2.74452c-0.039253,2.627831 -0.456726,8.510719 -2.32019,10.154701c-1.391693,-4.255859 -1.693886,-10.935581 -0.808395,-12.899221zm4.85038,42.388178c5.125977,10.229607 11.348534,19.904282 19.120377,28.258774c-2.290421,0.660576 -4.628052,1.287216 -6.888954,1.862839c-8.345963,2.664444 -16.525116,5.86438 -24.568268,9.384453c5.71357,-12.56929 9.485321,-25.994629 12.336845,-39.506065zm35.323486,31.422081c2.94075,-0.028099 5.289368,0.72094 4.709793,3.514771c-2.479065,-0.633141 -4.638954,-1.84034 -6.67807,-3.303886c0.666664,-0.067879 1.33493,-0.204834 1.968277,-0.210884zm-61.227364,20.807465c-0.626099,1.195717 -1.12738,2.442871 -1.79253,3.620216c-4.219318,6.468658 -10.323711,14.595062 -18.733749,14.445724c-2.511871,-7.051712 7.784359,-10.983635 12.58289,-14.164543c2.615219,-1.359833 5.29147,-2.603989 7.94339,-3.901398z"/>
 </g>
</svg>